<svg id="Layer_1" enable-background="new 0 0 795.4 895.9" viewBox="0 0 795.4 895.9" xmlns="http://www.w3.org/2000/svg"><g><g><g><circle cx="397.7" cy="398.7" fill="#66b0ff" r="394.7"/></g><g><g><path d="m397.7 796.3c-53.7 0-105.8-10.5-154.8-31.3-47.4-20-89.9-48.7-126.4-85.2s-65.2-79-85.2-126.4c-20.7-49-31.3-101.1-31.3-154.8s10.5-105.8 31.3-154.8c20-47.4 48.7-89.9 85.2-126.4s79-65.2 126.4-85.2c49-20.7 101.1-31.2 154.8-31.2s105.8 10.5 154.8 31.3c47.4 20 89.9 48.7 126.4 85.2s65.2 79 85.2 126.4c20.7 49 31.3 101.1 31.3 154.8s-10.5 105.8-31.3 154.8c-20 47.4-48.7 89.9-85.2 126.4s-79 65.2-126.4 85.2c-49.1 20.7-101.1 31.2-154.8 31.2zm0-789.3c-216 0-391.7 175.7-391.7 391.7s175.7 391.7 391.7 391.7 391.7-175.7 391.7-391.7-175.8-391.7-391.7-391.7z" fill="#fff"/></g></g></g><g><g><g fill="#fff"><path d=""/><path d="m534.1 25.5c.1 0 .1 0 0 0z"/><path d="m372.7 68.4h.1z"/><path d=""/><path d=""/><path d=""/><path d=""/><path d=""/><path d="m553.6 18.4c.1 0 .1 0 0 0z"/><path d=""/><path d=""/><path d=""/><path d=""/><path d=""/><path d=""/><path d=""/><path d="m285.8 68.6v-.1z"/><path d=""/><path d="m285.7 68.6h.1z"/><path d=""/><path d=""/><path d=""/><path d=""/><path d=""/><path d=""/><path d=""/><path d="m707 679.1c-2-6.8-4-12.8-5.8-17.7-.9-2.4-1.7-4.6-2.3-6.4-.6-1.8-1.2-3.3-1.4-4.2-1.5-5-5.7-8.7-10.9-9.5-6.8-1-12.2-2.9-16.5-5.2-3.3-1.8-5.9-3.8-8.1-6s-4-4.7-5.4-7.3c-2.8-5.3-4.3-11.5-4.3-17.9 0-4.8.8-9.7 2.3-14.3 1.1-3.4 2.6-6.7 4.4-9.6s3.9-5.4 6.1-7.4c2.2-2 4.6-3.6 7-4.6 2.5-1.1 5-1.7 7.8-1.8 2.6-.1 5.1-.9 7.2-2.4 2.1-1.4 3.8-3.4 4.8-5.8 10.1-23.6 14.5-44.8 14.5-63.9 0-12.5-1.9-24-5.2-34.4-5-15.6-13.1-28.8-22.2-39.7-6.3-7.5-13-14-19.6-19.7 6.9-21.2 9.9-42.5 9.9-63.1 0-20.2-2.8-39.6-7.6-57.6-5.1-19.3-12.5-36.9-21.2-52 .7-1.4 1.3-2.8 1.9-4.2 1.3-3.5 2.1-7.4 2.1-11.4 0-3.6-.7-7.2-2.1-10.7-2.2-5.3-5.9-9.9-10.7-13.4-1.3-1-2.7-1.9-4.1-2.7.1-1.2.2-2.4.2-3.6v-.1c0-4.3-1-8.6-2.9-12.6s-4.8-7.5-8.1-10.5c-3-2.7-6.4-4.8-9.9-6.2-1.3-.5-2.7-1-4-1.3l2-35.9c.5-.3 1-.7 1.5-1.1 2-1.9 3.4-4.6 3.7-7.5l1.8-22 1-1.5c.3-.4.6-.9.8-1.3 1.1 1.2 2.4 2.1 3.9 2.9 1.7.8 3.5 1.3 5.5 1.4l2.4.1h.8c1.8 0 3.6-.3 5.2-1 1.6-.6 3.1-1.5 4.3-2.7 1.4-1.2 2.5-2.7 3.3-4.4s1.3-3.5 1.4-5.5l.5-8.4c0-.3 0-.5 0-.8 0-1.6-.3-3.2-.8-4.7.3-.4.5-.8.7-1.3.8-1.7 1.3-3.5 1.4-5.5l.5-8.4c0-.3 0-.5 0-.8 0-1.8-.3-3.6-1-5.2-.6-1.6-1.5-3.1-2.7-4.3-1.2-1.4-2.7-2.5-4.4-3.3s-3.5-1.3-5.5-1.4l-2.4-.1c-.3 0-.5 0-.8 0-1.1 0-2.1.1-3.2.4-.1-.6-.3-1.3-.5-2-.4-1.3-1-2.5-2-3.7-.7-.9-1.5-1.7-2.3-2.4s-1.7-1.2-2.7-1.6c-1.1-.5-2.1-.8-3.1-1-.2-1.5-.5-3.1-1.1-4.8-.7-2-1.8-3.9-3.3-5.6-2.3-2.7-5.2-4.6-8.5-6-3.1-1.3-6.6-2-10.4-2.3s0 0-.1 0h-.1s0 0-.1 0c-1.3-.1-2.5-.2-3.7-.2-3.5 0-6.8.5-9.9 1.6-2.3.8-4.5 2.1-6.4 3.7-1.4 1.2-2.6 2.5-3.5 3.9s-1.6 2.8-2.2 4.3c-.2.5-.3.9-.4 1.3-1.4 0-3.1.3-4.8 1-1.5.6-2.8 1.4-4.1 2.6-.9.9-1.6 1.8-2.2 2.7-.4.7-.7 1.4-1 2-1.1-.4-2.3-.7-3.5-.8l-2.4-.2c-.4 0-.8-.1-1.3-.1-3.5 0-6.7 1.2-9.2 3.3-1.4 1.2-2.6 2.6-3.4 4.3-.9 1.6-1.4 3.5-1.6 5.4l-.7 8.4c0 .4-.1.8-.1 1.3 0 .7.1 1.3.2 2-2.2-7.9-4.3-14.4-6-19-.9-2.4-1.6-4.3-2.1-5.6-.3-.7-.5-1.2-.6-1.5-.1-.2-.1-.3-.2-.4 0-.1-.1-.2-.1-.2-1.1-2.5-2.9-4.6-5-6-2.2-1.4-4.7-2.2-7.4-2.2-.9 0-1.7.1-2.6.3h-.1s-.2 0-.4.1c-3.1.7-22.9 5-47.3 15.6-13.1 5.7-27.5 13.2-41.4 23.1-11.6 8.3-22.8 18.2-32.4 30.2-1.5-.3-3.1-.5-4.6-.8-.2-1.9-.7-3.7-1.4-5.6-1-2.4-2.4-4.5-4.2-6.3-2.7-2.7-6-4.5-9.4-5.6-3.4-1.1-7.1-1.6-11.1-1.6-3.1 0-6.3.3-9.9.9-.2-2.1-.6-4.2-1.4-6.4-1.1-3.1-3.1-6.1-6-8.5l-.2-.2c-1.7-1.3-3.5-2.3-5.5-3-2.1-.7-4.2-1-6.2-1 0 0-.1 0-.4 0-3.1.1-6.1.8-8.9 1.9-4.4 1.7-8.7 4.5-13.2 8.3-4.5 3.8-9.4 8.8-14.8 15.4-8.9 10.8-14.1 19.8-17.2 26.4-9.9 4.4-19.5 9.6-28.5 15.6-13.7-7.3-28.1-12-42.2-15-16.8-3.6-33.1-4.7-47.5-4.7-14 0-26.2 1.1-34.9 2.2-4.3.6-7.8 1.1-10.3 1.5-1.2.2-2.2.4-2.9.5-.3.1-.6.1-.8.2-.1 0-.2 0-.2 0h-.1-.1c-3.1.7-5.8 2.4-7.7 4.7s-3 5.3-3 8.5v.1 1.5c.2 5.9 1.1 27.6 7.6 53.9 3.8 15.3 9.4 32.3 18 48.7s20.3 32.3 36.2 45.1c4.5 3.6 9.3 6.5 14.2 8.6l-27.9 87.2c-.4 1.3-.6 2.7-.6 4.1 0 2.7.8 5.3 2.3 7.6 5.2 7.7 12.9 17.5 23.3 28 15 15.3 35.7 32 62.2 45.3-.4.2-.8.4-1.1.6-8.4 4.6-15.6 10.3-21.7 16.3-1.2 1.1-2.3 2.3-3.4 3.5-1.5-1.8-3-3.6-4.7-5.3-10.5-11-23.3-18.7-37.1-23.9-11.2-4.2-22.8-6.3-34.3-6.3 0 0-.1 0-.2 0-15 0-29.8 3.5-43.5 9.9-13.8 6.4-26.5 15.8-37.2 27.8-1.7 1.9-3.2 3.9-4.7 6-2.6 3.7-5.1 7.8-7.5 11.9-3.5 6.1-6.7 12.3-9 17-1.2 2.3-2.1 4.3-2.8 5.7-.3.7-.6 1.3-.8 1.6-.1.2-.2.3-.2.5l-.1.1c-.8 1.8-1.2 3.7-1.2 5.6 0 3.1 1 6.1 3.1 8.6 2.6 3.2 6.4 4.9 10.4 4.9.8 0 1.5-.1 2.3-.2.3 0 .6-.1.8-.1s.5-.1 1.1-.2c2-.4 6.4-1.1 11.5-1.1h.1c4.4 0 9.4.6 13.5 1.9 2.1.7 4 1.6 5.7 2.7s3.1 2.3 4.4 4c.8 1 1.7 2.5 2.7 4.5.2.4.5 1.1.8 2 .3.8.7 1.8 1 3 .7 2.1 1.3 4.8 2 7.7.7 3 1.4 6.3 2.2 9.9 2.7 12.7 6 28.7 11.3 45.7 4 12.8 9.2 26.2 16.4 39.2 5.4 9.8 11.9 19.4 19.8 28.3 11.9 13.4 27 25.3 45.9 34 2.9 1.3 5.9 2.6 9 3.8.9 2.1 2.4 4 4.4 5.4 51.2 37.2 110.4 60.9 173.9 66.7 4.8 9.7 10.9 19.4 18.8 29 4.1 5 8.9 9.4 14.3 13.5 9.5 7 20.8 12.9 33.3 17.9 18.8 7.5 40.6 13 63.4 16.7 6.4 1 12.8 1.9 19.3 2.7l-.3 18.6v.3c0 2.3.5 4.5 1.3 6.5 1.3 3 3.4 5.6 6 7.4 2.7 1.8 5.9 2.9 9.4 3h.3c2.3 0 4.5-.5 6.5-1.3 3-1.3 5.6-3.4 7.4-6 1.8-2.7 2.9-5.9 3-9.4l.3-16.6c5.4.2 10.8.3 16.1.3 24 0 46.8-2.1 66.4-6.6 9.8-2.3 18.8-5.2 26.8-8.9 8-3.7 15.1-8.3 20.8-14.3 16.2-17.3 27-35.4 33.5-53 6.6-17.7 9-34.9 9-50.7.6-19.4-3-36.6-6.9-50.3zm-175.3-625.1c-.1 0-.1 0 0 0zm21.3 23c0 .1 0 .1 0 0zm-12.8 3.1 2.4.2c.4 0 .8.1 1.3.1 2.7 0 5.3-.8 7.5-2.2.2.5.5 1.1.8 1.6l.3.5-1.9 23.3v1c0 2.3.7 4.6 2.1 6.6l-8.1 74.2c-3.7 3.4-6.5 7.4-8.8 11.7-2.1 4.1-3.7 8.4-4.9 12.8-.5 1.7-.9 3.4-1.2 5.1l-17.2-19.7c3.7-3.9 6.9-8.4 9.6-13.5 6-11.4 10-23.2 12.4-35.1 2.5-11.8 3.4-23.7 3.4-35 0-11.5-1-22.6-2.5-32.8 1.4.6 3 1.1 4.8 1.2zm72.8 1.9c0-.1 0-.1 0 0zm24.2-27.3c0-.1 0-.1 0 0zm-87-30.8s0 .1 0 0c0 .1 0 .1 0 0zm-17.2 22.7c-.1 0-.1 0 0 0zm-3.4 4.1s0 .1 0 0c-.1-.1-.2-.3-.2-.5.1.2.1.3.2.5z"/><path d=""/><path d=""/><path d=""/><path d=""/><path d=""/><path d=""/><path d=""/><path d=""/><path d="m620.3 23.8s.1 0 0 0c.1 0 .1.1 0 0z"/><path d=""/><path d="m642.2 52.7v.1z"/><path d="m642.6 44.3v.1z"/><path d="m639 34s0 .1 0 0z"/><path d=""/></g><g><path d="m535.5 335.3c-18.3 27.6-60.8 46.8-96 71.4-35.3 24.6-83.4 170 7.6 145.8 311.1-83 200.1-348.5 133.5-362.7s-26.8 117.9-45.1 145.5z" fill="#ff5420"/><path d="m654.2 282.5c-7-26.1-18.1-49-30.9-66.3-6.4-8.6-13.2-15.9-20.1-21.4-7-5.5-14.1-9.4-21.4-11-3.7-.8-7.3-1.2-10.6-1.2-3.9 0-7.6.6-11 1.7-3 1-5.7 2.4-8 4.2-4.2 3.1-7.4 7.2-9.8 11.9-3.7 7-5.7 15.2-6.9 24.2-1.2 8.9-1.6 18.6-1.6 28.5 0 16.7 1.1 34 1.1 48.4 0 7.3-.3 13.9-1 19.2-.4 2.6-.9 5-1.4 6.9-.6 1.9-1.3 3.4-1.9 4.4-4.2 6.3-9.8 12.3-16.7 18.1-10.2 8.7-22.9 17-36.5 25.4-13.5 8.4-27.9 16.9-41.3 26.3-3 2.1-5.9 4.8-8.8 8-5 5.5-9.7 12.5-14.2 20.4-6.7 11.9-12.7 26-17.1 40.4-4.4 14.5-7.1 29.3-7.1 42.9 0 6.3.6 12.3 2 17.9 1 4.2 2.5 8.2 4.6 11.8 3 5.4 7.4 10.1 13.1 13.2 2.8 1.6 5.9 2.8 9.3 3.6s7 1.2 10.9 1.2c6 0 12.7-1 20-2.9 40.5-10.8 74.1-24.7 101.7-40.8 41.4-24.2 69.3-53.4 86.8-84.4s24.5-63.8 24.5-94.8c-.3-19.6-3-38.4-7.7-55.8zm-14.3 115.1c-10.2 29.7-29.1 59-60.2 84.8-31.2 25.9-74.7 48.3-134.1 64.2-6.5 1.7-12.2 2.5-16.9 2.5-5.5 0-9.7-1-13.1-2.6-2.6-1.2-4.7-2.8-6.5-4.8-2.7-2.9-4.8-6.8-6.1-11.6-1.4-4.8-2.1-10.5-2.1-16.7 0-9.1 1.4-19.3 4-29.6 3.8-15.5 10-31.4 17-44.5 3.5-6.6 7.2-12.4 10.9-17.2 3.6-4.8 7.3-8.4 10.3-10.5 17.3-12.1 36.7-23 54.2-34.5 8.8-5.7 17.1-11.6 24.5-17.9s13.9-13.1 18.9-20.6l-5-3.3 5 3.3c1.5-2.3 2.6-4.8 3.4-7.5 1.2-4.1 2-8.6 2.4-13.6s.6-10.3.6-16c0-15-1.1-32.2-1.1-48.4 0-8.3.3-16.3 1.1-23.6.6-5.5 1.5-10.5 2.7-14.9.9-3.3 2.1-6.2 3.4-8.7 1-1.9 2.1-3.5 3.3-4.8 1.8-2 3.8-3.5 6.1-4.6 2.4-1 5.2-1.7 8.7-1.7 2.4 0 5.1.3 8.1.9 3.2.7 6.8 2.2 10.6 4.5 6.7 4.1 13.9 10.7 20.8 19.4 10.4 13 20.2 30.7 27.3 51.1s11.6 43.5 11.6 67.6c-.1 19.4-3 39.5-9.8 59.3z" fill="#740806"/><path d="m152.9 442.5c37.4 14.3 62.5 47.3 54.6 115-1.5 12.4-22.4 87.2 26.7 116.5 24 14.4 6.5 32.2 6.5 32.2-147-6.6-141.3-146.8-156.6-177.6-1.3-2.6-2.7-5-4.3-7-16.3-20.2-50.1-11.9-50.1-11.9s13.1-28.6 22.8-39.5c26.4-29.4 65.9-40.9 100.4-27.7z" fill="#ff5420"/><path d="m148.3 454.8c8.7 3.3 16.7 7.8 23.7 13.2l.3.2c-.5 5.4-24.9 4-24.9 4s19.1 25.9 10.7 51.2l-58.7-28.4-5 24.6c-3-5.3-6.9-9.9-11.8-13.7-4.3-3.4-5.5 3.4-6.5 11.7-17.2-15.2-46.3-8-46.3-8s13.1-28.6 22.8-39.5c26.3-29.4 65.8-40.9 100.3-27.7 4.2 1.6 8.2 3.4 12.1 5.5-8.3 3-18.6 6.2-16.7 6.9z" fill="#ffd5bc"/><path d="m252 685.9c-.9-3.1-2.5-6.1-5-9-2.4-2.9-5.7-5.5-9.8-8-5.9-3.5-10.6-7.7-14.5-12.4-5.7-7.1-9.5-15.3-11.8-24.2-2.3-8.8-3.2-18.2-3.2-27.2 0-10.6 1.2-20.8 2.5-29 .6-4.1 1.3-7.7 1.9-10.7.3-1.5.5-2.8.7-4s.4-2.2.5-3.2c1-8.7 1.5-16.9 1.5-24.6 0-13.4-1.5-25.3-4.4-35.9-4.3-15.9-11.6-28.7-21.2-38.7s-21.4-17.2-34.3-22.1l-2.1 5.6 2.1-5.6c-10.3-3.9-21-5.8-31.6-5.8-27.8 0-55.2 12.7-75.3 35.1-1.4 1.6-2.8 3.4-4.2 5.3-2.4 3.4-4.8 7.3-7.1 11.3-3.4 5.9-6.5 12-8.8 16.6s-3.7 7.7-3.7 7.8c-1 2.1-.6 4.6.8 6.3 1.5 1.8 3.8 2.5 6 2 .2 0 6.5-1.5 14.5-1.5 5 0 10.8.6 16 2.3 2.6.9 5.1 2 7.4 3.5s4.3 3.3 6.2 5.5c1.3 1.6 2.5 3.5 3.6 5.9.7 1.5 1.5 3.6 2.3 6.1 1.5 4.7 2.9 11 4.4 18.3 2.7 12.7 5.9 28.5 11.1 45.1 3.9 12.4 8.9 25.3 15.8 37.8 5.2 9.4 11.3 18.5 18.8 26.9 11.2 12.7 25.5 23.9 43.4 32.1 18 8.3 39.6 13.6 65.7 14.8 1.7.1 3.4-.6 4.5-1.8.2-.2 2.1-2.1 4-5.3 1-1.6 1.9-3.5 2.7-5.8.7-2.2 1.3-4.8 1.3-7.6.2-1.8-.1-3.9-.7-5.9zm-11.8 9.8c-.6 1.7-1.5 3.3-2.3 4.5-16.6-1-31.1-3.7-43.7-7.8-11.7-3.8-21.8-8.8-30.7-14.6-15.5-10.2-27-23-35.9-37-13.4-21-20.6-44.8-25.6-65.6-2.5-10.4-4.4-20.1-6.3-28.5-.9-4.2-1.9-8-2.9-11.4s-2.1-6.5-3.4-9.2c-1.4-2.9-3-5.6-5-8.1-2.7-3.3-5.7-6-9-8.1-4.9-3.2-10.2-5.1-15.3-6.2s-10.1-1.5-14.6-1.5c-2 0-3.8.1-5.6.2 1-1.9 2-4 3.2-6.2 2.2-4.1 4.6-8.4 7-12.3 1.2-1.9 2.4-3.8 3.6-5.4s2.3-3 3.2-4.1c18-20.1 42.3-31.1 66.4-31.1 9.3 0 18.5 1.6 27.4 5 7.7 2.9 14.8 6.7 21.1 11.4 9.4 7.1 17.1 16.2 22.5 28.3s8.6 27.1 8.6 45.9c0 7.2-.5 14.9-1.4 23.2-.1.5-.2 1.4-.4 2.5-.3 1.9-.8 4.5-1.4 7.6-1.7 9.3-3.9 23.1-3.9 38.2 0 13 1.6 27.1 6.8 40.3 2.6 6.6 6.1 12.9 10.8 18.7s10.5 10.9 17.6 15.2c4.3 2.6 6.7 5 8 7.1.7 1 1.1 2 1.3 2.9.3.9.4 1.8.4 2.6.2.9-.1 2.2-.5 3.5z" fill="#740806"/><path d="m399.2 368.2c-162 3.1-198.8 170.9-198.8 170.9l-7.5 163.5c57.3 41.6 124.5 65.5 196.7 65.5 85.9 0 164.9-34.2 228.4-91.5 0 .1-33.3-311.9-218.8-308.4z" fill="#ff5420"/><path d="m624 676.1c0-.1-2.1-19.6-8.1-48.8-4.5-21.9-11.2-49.2-20.9-78-7.3-21.6-16.2-44-27.3-65.4-16.5-32.2-37.7-62.5-64.9-84.9-13.6-11.2-28.7-20.4-45.5-26.8-16.7-6.4-35.1-10-55.1-10-1.1 0-2.1 0-3.2 0-41.5.8-75.4 12.2-102.4 28.9-20.3 12.5-36.8 28-50.2 44.1-20 24.1-32.9 49.7-40.9 69.3s-10.9 33.2-11 33.4c-.1.3-.1.7-.1 1l-7.5 163.5c-.1 2 .8 3.9 2.5 5.1 58.2 42.3 126.7 66.7 200.2 66.7 43.7 0 85.7-8.7 124.9-24.7 39.1-16 75.3-39.3 107.6-68.4 1.3-1.2 2.1-3.1 1.9-5zm-114.1 62.3c-37.7 15.4-78.2 23.8-120.3 23.8-69.7 0-134.7-22.7-190.5-62.5l7.3-159.7c.5-2.2 2.9-11.9 8.1-25.5 4.4-11.6 10.9-26.1 19.9-41.3 13.5-22.8 32.8-47.2 59.6-65.9 13.4-9.4 28.7-17.4 46.1-23.2s37.1-9.4 59.2-9.8h3c22 0 41.6 4.6 59.2 12.7 15.4 7.1 29.4 16.8 42 28.6 22.1 20.5 40 47.1 54.4 75.6 21.6 42.6 35.2 89.3 43.3 125.3 4.1 18 6.8 33.3 8.4 44 .8 5.4 1.4 9.6 1.8 12.6.1.5.1.9.2 1.4-30.6 27.1-64.9 48.8-101.7 63.9z" fill="#740806"/><path d="m404.8 486c-111.6 10.7-217.7 239.4 15.7 236.4 226.5-3.2 96-247.1-15.7-236.4z" fill="#ffd5bc"/><path d="" fill="#740806"/><path d="" fill="#740806"/><path d="m510 175.3c-33.8 64.1-162.2-3.6-128.3-67.7 33.8-64.1 125.4-82.2 125.4-82.2s36.7 85.8 2.9 149.9z" fill="#ff5420"/><path d="m492.6 153.7c-19.1 36.2-91.6-2-72.5-38.3 19.1-36.2 70.9-46.5 70.9-46.5s20.7 48.5 1.6 84.8z" fill="#ffd5bc"/><path d="m160.8 247.5c56.5 45.5 147.5-67.6 91-113-56.5-45.5-147.8-25.9-147.8-25.9s.3 93.4 56.8 138.9z" fill="#ff5420"/><path d="m168.1 220.7c31.9 25.7 83.3-38.2 51.4-63.9s-83.5-14.6-83.5-14.6.2 52.8 32.1 78.5z" fill="#ffd5bc"/><path d="m499.8 201.3c-24.5-89.3-112.4-121.6-187.7-106.1-.2 0-.4.1-.7.1-.2 0-.4.1-.7.1-75.3 15.6-143.2 80.1-130.3 171.8l-29 90.6c21.9 32.3 98.4 113.6 231.3 86.2.2 0 .4-.1.7-.1.2 0 .4-.1.7-.1 132.8-27.5 170.9-132.4 178.2-170.8z" fill="#ff5420"/><path d="m566.8 269.1-61.6-70.7c-.5-1.8-1-3.5-1.6-5.2 4.5-4.1 8.5-9.1 11.7-15.1 11.3-21.4 15-44.7 15-66.6 0-23.7-4.4-45.7-8.8-61.9s-8.8-26.5-8.9-26.6c-1.1-2.6-3.9-4.1-6.7-3.5-.3.1-20.7 4.1-46.2 15.2-12.7 5.5-26.7 12.8-40 22.3-12.3 8.8-24 19.4-33.6 32.3-12.3-2.5-24.8-3.8-37.3-3.8-12.8 0-25.5 1.3-38 3.9-.3.1-.5.1-.7.1-.1 0-.4.1-.7.1-24.6 5.1-48.5 15.2-69.2 29.8-14.1-8.1-29.2-13.3-44.1-16.4-16.1-3.4-32-4.5-45.9-4.6-27.3 0-47.3 4.3-47.6 4.4-2.8.6-4.7 3.1-4.7 5.9 0 .3.1 24 7.4 53.8 3.7 14.9 9.1 31.2 17.4 47 8.3 15.7 19.3 30.8 34.2 42.8 5.3 4.2 10.9 7.3 16.7 9.2.2 1.8.4 3.6.6 5.4l-28.5 89.1c-.6 1.8-.3 3.7.7 5.2 4.9 7.3 12.4 16.7 22.4 26.9 15 15.3 35.9 32.1 62.8 45.2s59.7 22.3 98.4 22.3c16.9 0 34.8-1.8 53.9-5.7.4-.1.6-.1.6-.1.2 0 .4-.1.7-.1 33.9-7 61.9-19 84.9-33.7 34.5-22 57.6-50.1 72.8-76.3 7.6-13.1 13.2-25.7 17.2-37 4.1-11.2 6.6-21 8-28.6.4-1.8-.1-3.7-1.3-5zm-73.9 114.3c-25.8 23.8-61.2 44.4-110 54.5-.1 0-.3.1-.6.1h-.1c-.4.1-.6.1-.7.1-18.3 3.8-35.4 5.4-51.5 5.4-24.5 0-46.4-3.9-65.9-10.1-29.1-9.4-52.7-24.1-70.7-39-16.6-13.8-28.4-27.7-35.5-37.6l28.1-87.7c.3-.9.4-1.8.2-2.7-.5-3.4-.8-6.8-1.1-10.2-.2-2.6-2-4.8-4.6-5.4-5.6-1.4-11-3.9-16.2-8.1-13.3-10.7-23.5-24.4-31.1-39-11.3-21.8-17.2-45.7-20.2-64.1-1.5-9.2-2.2-17-2.6-22.5-.1-1.3-.2-2.5-.2-3.5 7.3-1.2 22.1-3.2 40.1-3.2 13.3 0 28.3 1.1 43.4 4.3s30.2 8.5 43.7 17c2.1 1.3 4.8 1.2 6.7-.3 20-14.7 43.5-25 67.8-30 .1 0 .3-.1.6-.1.3-.1.5-.1.6-.1 11.6-2.4 23.6-3.6 35.6-3.6 13 0 26 1.4 38.5 4.3 2.4.5 4.9-.4 6.3-2.4 9-13 20.6-23.8 33.1-32.6 18.7-13.3 39.1-22.3 54.9-27.8 7.9-2.8 14.6-4.7 19.3-5.9.9-.2 1.7-.4 2.4-.6 1.6 4.4 4.1 11.6 6.6 20.8 4.2 15.4 8.3 36.3 8.3 58.4 0 20.5-3.6 41.9-13.6 61-3.1 5.9-7.1 10.4-11.6 13.9-2.1 1.6-2.9 4.3-2.1 6.7 1.1 3.2 2.1 6.4 3 9.8.2.9.7 1.7 1.3 2.4l60.6 69.4c-1.9 9-5.4 21.2-11.3 34.9-9.6 22.6-25.7 49.7-51.5 73.5z" fill="#740806"/><path d="m519.4 273.9 6.2-9.2s-85.1-101-133-91.6c-54.3 10.6-24.9 114.1-40.2 117.2-.2 0-.5.1-.7.1-.2.1-.4.2-.6.2-15.3 3.2-29.3-103.5-83.4-91.7-47.6 10.4-85.8 136.8-85.8 136.8l9.3 6-17.9 13.2c9.9 12.6 30 34.4 61.4 51.4 42.9 23.3 91.4 29.6 144.1 18.7.2 0 .4-.1.7-.1.2 0 .4-.1.7-.1 52.8-10.9 94.8-35.9 124.9-74.3 22-28.1 31.9-56 36-71.5z" fill="#ffd5bc"/><path d="m364.5 79.9c-2-4.8-12.3-9.3-41.2 1.7 6-10.6 7.6-20.3 3.2-23.9-3.3-2.7-12.8-1.8-30.3 19.5-13.9 17-17.6 28.3-18.4 31.3-.1.5.4 1.2.8 1.3 5.9 8 32.4 11.4 53.1 2.7 21.8-9 36.5-23.6 32.8-32.6z" fill="#ff5420"/><path d="m370.1 77.6c-.6-1.4-1.5-2.7-2.6-3.8-1.7-1.7-3.9-2.9-6.4-3.7s-5.4-1.2-8.8-1.2c-3.8 0-8.1.5-13.2 1.7-1.6.4-3.3.8-5.1 1.3.7-2.5 1.1-5 1.1-7.4 0-2-.3-4-1-6s-2-3.9-3.7-5.3c-1-.8-2.1-1.4-3.4-1.8-1.2-.4-2.5-.6-3.9-.6-2.1 0-4.3.5-6.5 1.4-3.4 1.3-7 3.6-11.1 7s-8.7 8.1-13.8 14.4c-14.1 17.2-18.4 29.2-19.5 33.3-.4 1.4-.4 2.9.2 4.2 1.3 3 4.9 4.4 7.9 3 1.7-.8 2.9-2.2 3.4-3.9 0 0 0 0 0-.1.6-2.1 3.8-12.7 17.3-29 6.4-7.8 11.6-12.6 15.4-15.3 1.9-1.3 3.5-2.2 4.6-2.6.9-.4 1.6-.5 1.9-.5.1.3.2.9.2 1.7 0 1.4-.3 3.6-1.2 6-.8 2.5-2.1 5.3-3.7 8.3-1.2 2.2-1 4.9.7 6.9 1.6 1.9 4.3 2.6 6.7 1.7 6.4-2.4 11.8-4 16.2-5s8-1.4 10.6-1.4c3.2 0 5.1.5 6 1 .5.2.7.4.7.5.1.2.1.3.1.6s0 .7-.2 1.2c-.3.9-.9 2.2-1.9 3.7-1.5 2.2-3.9 4.8-7.1 7.3-3.2 2.6-7 5.2-11.4 7.6-2.9 1.6-4 5.2-2.4 8.1s5.2 4 8.1 2.4c7.6-4.1 14-8.9 18.7-13.8 2.4-2.5 4.3-5.1 5.8-7.8.7-1.4 1.3-2.8 1.7-4.2.4-1.5.7-3 .7-4.5-.1-1.9-.4-3.7-1.1-5.4z" fill="#740806"/><path d="m468.6 119.4c.1-2.8-3.9-7.4-20.6-8.8 5.4-3.8 8.5-8.2 7.1-11-1-2.1-5.9-3.9-19.5 2.5-10.8 5.1-15.3 9.8-16.4 11.1-.2.2-.3.3-.3.3l.3.5c1 5.3 13.2 13.2 25.5 13.8 13 .7 23.6-3.1 23.9-8.4z" fill="#ff5420"/><path d="m179.4 179.1c-1.2-2.5.6-8.3 15.5-16.3-6.5-1.4-11-4.2-10.9-7.3.1-2.3 3.9-5.9 18.9-5.4 11.9.4 17.9 2.9 19.4 3.7.2.1.4.2.4.2l-.1.6c1.2 5.3-6.9 17.3-18 22.7-11.5 5.8-22.8 6.6-25.2 1.8z" fill="#ff5420"/><path d="m445.9 176.2c5-6.7-10.3-22.4-15-26.3-14.6-12.1-36.2-16.7-53.6-7.7-6.5 3.4-12 8.8-15.5 15.3-1.7 3.2-7.6 18.3-2.9 21 .7.4 1.5.2 1.9-.5 2.1-3 4.2-6 6.8-8.5 1.3-1.5 2.9-2.7 4.4-4.1l.1-.1c1.6-1.1 3.2-2.4 5-3.2 13.2-6.5 27.2-5.1 40.7.1 9.1 3.5 17.6 8.6 25.8 13.9.4.3.8.5 1.3.5.5.1.8-.1 1-.4z" fill="#740806"/><path d="m217.8 223.3c-.8-.3-1.3-1.4-1.3-2.3-.9-20.2 7.4-39.9 25.7-50.2 18.7-10.5 47.1-6.3 55.6 15.7.4 1.1.7 2.2 1 3.3.1.4 0 .9-.3 1.2-.5.6-1.3.8-2 .4-15.6-10-32.9-10.7-48.7-.2-11.6 7.8-20 19.5-28 31-.3.5-.7 1-1.2 1.1-.2.1-.5.1-.8 0z" fill="#740806"/><path d="m378.3 256.3c4.2 22.2 20.6 37.7 36.6 34.6 15.9-3.1 25.4-23.5 21.2-45.7s-20.6-37.7-36.6-34.6c-15.9 3.1-25.4 23.5-21.2 45.7z" fill="#fff"/><path d="m313.7 269.6c4.9 22-4 42.7-19.9 46.3s-32.6-11.5-37.5-33.5 4-42.7 19.9-46.3 32.6 11.5 37.5 33.5z" fill="#fff"/><path d="m432.6 307.3c-6.2 17.5-47.7 37.6-68.1 8.7-1.2.3-5.2-27.8-11.4-26.5-.3.1-.6.2-.9.5-.3-.1-.7-.1-1-.1-6.2 1.3 1.1 28.6 0 28.8-7.3 34.7-53.4 32.6-66 19 0 0-4.8-.8-.6 7.2 5.2 6.4 8.2 13.9 28.4 14.2.5 0 3.7 66.3 64.6 53.7s37.6-74.7 38-74.9c18.4-8.3 18.2-16.3 20.4-24.3.7-9-3.4-6.3-3.4-6.3z" fill="#740806"/><path d="m383.1 334.7s5.9 16.5 10.5 15.5c4.6-.9 5.3-13.6 5.3-13.6-8.2 1.3-15.8-1.9-15.8-1.9z" fill="#fff"/><path d="m342.8 343s1.1 17.5-3.5 18.4-10.3-10.4-10.3-10.4c8.1-2 13.8-8 13.8-8z" fill="#fff"/><path d="m368.4 368.5c12.1-2.5 23.3 1.9 25 9.9s-6.9 16.5-19 19-23.3-1.9-25-9.9c-1.7-7.9 6.8-16.4 19-19z" fill="#ff5420"/><path d="m347.3 269.3c-18.9 4.4-32.4 15.2-30.5 24.5s31.1 22.4 39.8 20.6 30.3-25.3 28.4-34.7-18.6-13.9-37.7-10.4z" fill="#740806"/><path d="m346.9 274.8c4.6-1 8.7-.2 9.1 1.7s-3 4.2-7.7 5.2-8.7.2-9.1-1.7 3.1-4.2 7.7-5.2z" fill="#fff"/><path d="m359 273.9c1-.2 2 .4 2.3 1.4s-.5 2-1.5 2.2-2-.4-2.2-1.4.3-2 1.4-2.2z" fill="#fff"/><path d="m453.1 255.6c13.8-2.8 26.1.3 27.5 7s-8.7 14.5-22.5 17.4-26.1-.3-27.5-7c-1.3-6.8 8.7-14.5 22.5-17.4z" fill="#ff5420"/><path d="m249.5 297.7c13.8-2.8 26.1.3 27.5 7s-8.7 14.5-22.5 17.4-26.1-.3-27.5-7c-1.4-6.8 8.7-14.6 22.5-17.4z" fill="#ff5420"/><g fill="#740806"><path d="m185.2 255.4-3.4.8 3.4-.8-3.4.8 3.4-.8c-.1-.5-1-4.8-1-11.9 0-9.5 1.5-23.8 8.4-40.7 1.3-3.1-.2-6.6-3.3-7.8s-6.6.2-7.8 3.3c-7.6 18.5-9.3 34.5-9.3 45.3 0 8.9 1.2 14.2 1.3 14.6.7 3.2 4 5.3 7.2 4.5s5.2-4.1 4.5-7.3z"/><path d="m502.6 190.1c-.1-.4-1.3-6.9-5.8-16.5s-12.2-22.4-25.3-35.2c-2.4-2.3-6.2-2.3-8.5.1s-2.3 6.2.1 8.5c11.9 11.7 18.8 23.2 22.8 31.7 2 4.3 3.2 7.8 4 10.2.4 1.2.6 2.1.8 2.7.1.3.1.5.1.6v.1l3.2-.6-3.2.6 3.2-.6-3.2.6c.6 3.3 3.7 5.4 7 4.8s5.4-3.7 4.8-7z"/><path d="m394.9 235.8c-14.3 2.7-19.2 17.1-21.2 23.4-.9 6.1 4.5 7 6.9 4.9 6.1-7.4 12.7-20.3 40.6-7.8 5 .8 9.1-3.7 3.6-9.4-8-6.6-18.5-13.2-29.9-11.1z"/><path d="m266.6 280.9c-2.6 7.6 3 9.9 7.2 7 20-23.1 31.4-14.2 40.1-10 3.1.8 7.6-2.1 4.3-7.3-4.5-4.9-14.9-15.9-29.1-12.3-11.3 2.8-18.1 13.3-22.5 22.6z"/><path d="m534.1 879.1 1.2-72.6c.1-5.2-4.1-9.5-9.3-9.6s-9.5 4.1-9.6 9.3l-1.2 72.6c-.1 5.2 4.1 9.5 9.3 9.6s9.5-4.1 9.6-9.3z"/><path d="m561.4 36.9c-.9-1.1-2.3-1.9-3.8-2l-4.6-.4-.9-.1c-.3-.8-.7-1.5-1.2-2.2-1.1-1.3-2.7-2.2-4.6-2.4l-2.4-.2c-1.8-.2-3.6.5-4.9 1.6s-2.2 2.7-2.4 4.6l-.7 8.4c-.2 1.8.5 3.6 1.6 4.9s2.7 2.2 4.6 2.4l2.4.2c1.8.2 3.6-.5 4.9-1.6.7-.6 1.2-1.3 1.7-2.1l.8.1 4.6.4c1.5.1 3-.4 4.1-1.3s1.8-2.3 2-3.8l.2-2.5c0-1.4-.5-2.9-1.4-4z"/></g><path d="m557.3 40-4.6-.4-1.8-.2-3.1-.3.2-1.8c.1-1.2-.8-2.3-2-2.4l-2.4-.2c-1.2-.1-2.3.8-2.4 2l-.7 8.4c-.1 1.2.8 2.3 2 2.4l2.4.2c1.2.1 2.3-.8 2.4-2l.2-2 2 .2 2.8.2 4.6.4c.6.1 1.1-.4 1.2-1l.2-2.5c0-.4-.4-.9-1-1z" fill="#a84b00"/><path d="m560.2 58c-.9-1.1-2.3-1.9-3.8-2l-4.6-.4-.9-.1c-.3-.8-.7-1.5-1.2-2.2-1.1-1.3-2.7-2.2-4.6-2.4l-2.4-.2c-1.8-.2-3.6.5-4.9 1.6s-2.2 2.7-2.4 4.6l-.7 8.4c-.2 1.8.5 3.6 1.6 4.9s2.7 2.2 4.6 2.4l2.4.2c1.8.2 3.6-.4 4.9-1.6.7-.6 1.2-1.3 1.7-2.1l.8.1 4.6.4c1.5.1 3-.4 4.1-1.3s1.8-2.3 2-3.8l.2-2.5c.1-1.4-.5-2.9-1.4-4z" fill="#740806"/><path d="m556.1 61.1-4.6-.4-1.8-.2-3.1-.3.2-1.8c.1-1.2-.8-2.3-2-2.4l-2.4-.2c-1.2-.1-2.3.8-2.4 2l-.7 8.4c-.1 1.2.8 2.3 2 2.4l2.4.2c1.2.1 2.3-.8 2.4-2l.2-2 2 .2 2.8.2 4.6.4c.6.1 1.1-.4 1.2-1l.2-2.5c0-.4-.4-.9-1-1z" fill="#a84b00"/><path d="m610.4 41.5c1.1-1 2.5-1.5 4.1-1.4l4.6.3h.9c.4-.8.9-1.4 1.5-2 1.3-1.1 3-1.8 4.9-1.7l2.4.1c1.9.1 3.5 1 4.7 2.2 1.1 1.3 1.8 3 1.7 4.9l-.5 8.4c-.1 1.9-1 3.5-2.2 4.7-1.3 1.1-3 1.8-4.9 1.7l-2.4-.1c-1.9-.1-3.5-1-4.7-2.2-.6-.7-1.1-1.4-1.3-2.3h-.8l-4.6-.3c-1.5-.1-2.9-.8-3.9-1.9-.9-1.1-1.5-2.5-1.4-4.1l.1-2.5c0-1.5.7-2.9 1.8-3.8z" fill="#740806"/><path d="m614 45.1 4.6.3 1.8.1 3.1.2.1-1.8c.1-1.2 1.1-2.2 2.3-2.1l2.4.1c1.2.1 2.2 1.1 2.1 2.3l-.5 8.4c-.1 1.2-1.1 2.2-2.3 2.1l-2.4-.1c-1.2-.1-2.2-1.1-2.1-2.3l.1-2-2-.1-2.8-.2-4.6-.3c-.6 0-1-.5-1-1.1l.1-2.5c0-.6.6-1 1.1-1z" fill="#a84b00"/><path d="m608.6 62.1c1.1-1 2.5-1.5 4.1-1.4l4.6.3h.9c.4-.8.9-1.4 1.5-2 1.3-1.1 3-1.8 4.9-1.7l2.4.1c1.9.1 3.5 1 4.7 2.2 1.1 1.3 1.8 3 1.7 4.9l-.5 8.4c-.1 1.9-1 3.5-2.2 4.7-1.3 1.1-3 1.8-4.9 1.7l-2.4-.1c-1.9-.1-3.5-1-4.7-2.2-.6-.7-1.1-1.4-1.3-2.3h-.8l-4.6-.3c-1.5-.1-2.9-.8-3.9-1.9-.9-1.1-1.5-2.5-1.4-4.1l.1-2.5c0-1.5.7-2.9 1.8-3.8z" fill="#740806"/><path d="m612.2 65.7 4.6.3 1.8.1 3.1.2.1-1.8c.1-1.2 1.1-2.2 2.3-2.1l2.4.1c1.2.1 2.2 1.1 2.1 2.3l-.5 8.4c-.1 1.2-1.1 2.2-2.3 2.1l-2.4-.1c-1.2-.1-2.2-1.1-2.1-2.3l.1-2-2-.1-2.8-.2-4.6-.3c-.6 0-1-.5-1-1.1l.1-2.5c0-.5.5-1 1.1-1z" fill="#a84b00"/><path d="m392.1 630.1c69.9 1.3 65.6-89.6 20.7-98.9-21.7-85.6 23.6-121.1 60-140.9 40.1-21.9 60.6-63.4 60.6-63.4l27.1 2 2.2.2 2.2.2 27 2.5s13.8 44.4 50 72.7c32.9 25.7 72 68.3 37.5 149.1-45.7 1.6-64 90.7 5.2 101 5.9 19.7 44.7 97.3-22.4 169.2-39.7 42.5-230.8 30.2-274-23.1-63.2-77.7-5-152.2 3.9-170.6z" fill="#fec700"/><path d="m699.8 681.2c-1.9-6.6-3.9-12.4-5.6-17.2-.9-2.4-1.6-4.5-2.3-6.4s-1.2-3.4-1.6-4.6c-.7-2.2-2.6-3.9-4.9-4.2-7.6-1.1-13.8-3.3-19-6-7.7-4.2-13-9.8-16.6-16.3-3.5-6.5-5.2-13.9-5.2-21.5 0-5.6.9-11.3 2.7-16.6 2.6-8 7-15.1 12.6-20.2 2.8-2.5 5.8-4.6 9.1-6s6.8-2.3 10.5-2.4c2.3-.1 4.4-1.5 5.3-3.6 9.8-22.9 13.9-43.1 13.9-60.9 0-11.7-1.8-22.4-4.9-32.1-4.6-14.5-12.2-26.8-20.8-37.2s-18.4-18.9-27.5-26c-17.2-13.4-29.3-30.9-37-45.1-3.9-7.1-6.6-13.3-8.4-17.7-.9-2.2-1.5-4-2-5.2-.2-.6-.4-1-.5-1.3 0-.1-.1-.3-.1-.3v-.1c-.7-2.3-2.8-4-5.2-4.2l-26.4-2.5c-.2 0-.5-.1-.7-.1l-2.2-.2-2.2-.2c-.2 0-.5 0-.7 0l-26.4-2c-2.4-.2-4.7 1.1-5.8 3.3 0 .1-5.1 10.2-14.8 22.8-9.8 12.6-24.3 27.7-43.2 38-15.3 8.3-32.4 19.5-45.8 36.2-6.7 8.3-12.5 18.1-16.5 29.4-4.1 11.3-6.4 24.3-6.4 39 0 12.9 1.8 27.2 5.8 43.1.6 2.2 2.4 3.9 4.6 4.4 4.3.9 8.2 2.7 11.6 5.2 5.1 3.8 9.3 9.3 12.1 15.8 2.9 6.5 4.4 14 4.4 21.4 0 5.7-.9 11.3-2.7 16.6-1.4 3.9-3.2 7.6-5.6 11-3.6 5-8.3 9.2-14.5 12.2s-13.8 4.9-23.3 4.9c-.5 0-.9 0-1.4 0-2.4 0-4.5 1.3-5.5 3.4-.6 1.2-1.6 3.1-2.9 5.3-2.2 3.9-5.3 8.9-8.6 15-4.9 9.1-10.5 20.3-14.7 33.2-4.3 12.9-7.4 27.5-7.4 43.2 0 12.5 1.9 25.7 6.7 39.3 4.8 13.5 12.4 27.4 23.6 41.2 3.6 4.4 7.9 8.4 13 12.2 8.8 6.5 19.5 12.1 31.6 16.9 18.2 7.2 39.5 12.6 61.8 16.3s45.7 5.5 68.1 5.5c23.5 0 45.9-2.1 64.7-6.4 9.4-2.2 17.9-4.9 25.3-8.4 7.4-3.4 13.7-7.6 18.5-12.7 15.6-16.7 25.8-33.8 32-50.5s8.5-33 8.5-48.1c.1-18.9-3.3-35.4-7.1-48.6zm-12.5 92c-5.7 15.2-15 30.9-29.5 46.5-3.3 3.6-8.3 7-14.8 10-9.6 4.5-22.3 8-36.9 10.3s-31 3.4-48.1 3.4c-33 0-68.7-4.3-99-12.3-15.1-4-28.9-9-40.3-14.8-5.7-2.9-10.8-6-15.1-9.2-4.4-3.2-8-6.6-10.8-10.1-10.4-12.8-17.3-25.5-21.6-37.7s-6-24-6.1-35.3c0-10.8 1.6-21.1 4.1-30.7 3.8-14.4 9.6-27.1 15.1-37.5 2.7-5.2 5.4-9.7 7.7-13.6 1.1-1.9 2.2-3.7 3.1-5.3.2-.4.4-.7.6-1 8.9-.2 16.8-1.9 23.7-4.8 5.5-2.3 10.4-5.5 14.5-9.2 6.2-5.5 10.6-12.4 13.5-19.7s4.3-15.2 4.3-23c0-6.1-.8-12.1-2.4-17.9-2.4-8.6-6.6-16.7-12.5-23.1-3-3.2-6.4-6-10.2-8.3-2.7-1.6-5.7-2.9-8.8-3.9-3.2-13.6-4.6-25.8-4.6-36.7 0-13.4 2.1-24.9 5.7-34.9 5.4-15 14-26.7 24.2-36.3 10.1-9.5 21.7-16.9 32.6-22.9 21.1-11.5 36.7-28 47.2-41.5 6.9-8.9 11.5-16.6 13.9-20.9l23.2 1.7h.6l1.5.1h.1l1.5.1c.2 0 .4.1.6.1l23.2 2.2c1.7 4.6 5.1 13 10.5 23 8.2 15.1 21.1 34 40.1 48.8 11.7 9.1 23.9 20.2 33.1 34.2 4.6 7 8.5 14.7 11.2 23.2s4.3 18 4.3 28.5c0 15.2-3.3 32.7-11.6 52.9-5.6.7-10.8 2.6-15.4 5.3-8.6 5-15.3 12.8-19.9 21.8s-7.1 19.4-7.1 29.8c0 6.2.9 12.5 2.9 18.4 2.9 9 8.3 17.4 16.3 24 7.3 6 16.6 10.4 28.1 12.6.2.5.4 1.1.6 1.6 1.2 3.4 2.7 7.4 4.3 12 4.7 13.9 10.2 33.5 10.2 55.8-.1 14.3-2.2 29.1-7.8 44.3z" fill="#740806"/><path d="m606.6 560.5c9.3 9.9 10.5 34.8-3.9 74.7-7.9 22-10.9 28.6-5.3 34.1 9.9 9.7 23.6-1.3 13.4-6.5-3.9-2.3-5.5-7.3-3.4-11.5 2.1-4.4 7.4-6.2 11.8-4.1 2.8 1.3 4.5 3.9 4.9 6.7v.4c.8 5.6-.9 12.2-4.4 16.8-2.7 3.6-16.6 12.3-30-4.7-17.8-22.6 16.6-86.1 18.7-94.8 2.1-8.5-7.4-11.6-8.1-8.5.9 1.8 1 4 0 6-1.7 3.4-5.8 4.8-9.2 3.2-4.3-2.1-4.9-7.1-3.1-11.4 1.9-4.1 10.8-8.6 18.6-.4z" fill="#740806"/><path d="m480.7 550.3c-10.8 8.2-16 32.7-8.2 74.3 4.3 23 6.1 30-.3 34.5-11.3 8-23.1-5.1-12.2-8.6 4.2-1.7 6.6-6.3 5.2-10.8-1.4-4.7-6.3-7.3-11-5.9-2.9.9-5.1 3.1-5.9 5.8l-.1.4c-1.7 5.4-1.1 12.2 1.6 17.3 2.1 4 14.4 14.8 30.3.2 21.2-19.4-2.5-87.7-3.2-96.6-.7-8.8 9.1-10.3 9.3-7.1-1.2 1.7-1.6 3.8-1 5.9 1.1 3.7 4.9 5.7 8.6 4.6 4.6-1.3 6-6.2 4.9-10.8-1-4.1-9-10.1-18-3.2z" fill="#740806"/><path d="m580.8 631.7-86.1-8.1s16.4-12.6 40.5-12.7c24.2 0 45.6 20.8 45.6 20.8z" fill="#740806"/><path d="m561.9 73.7 2.3 3.7-2.3 27.1c12.1.7 24.3 1.3 36.4 1.8l2-25.2 2.9-4.1.8-10.2 6.9.6 1.7-21.5-4.4-7.6s6.2-7.8 1.2-8.2-10.3-2.5-10.3-2.5 7.9-14.5-11.5-15.9c-19.4-1.7-13.9 13.9-13.9 13.9s-5.7 1.2-10.6.8-.1 8.3-.1 8.3l-5.5 6.8-1.7 21.5 6.9.6z" fill="#fe5a17"/><path d="m616.2 43.9-3.1-5.4c.1-.1.2-.3.3-.4.5-.8.9-1.6 1.4-2.6.2-.5.4-1 .5-1.6s.3-1.2.3-2c0-.6-.1-1.3-.3-2-.2-.5-.5-1.1-.8-1.6-.6-.7-1.3-1.3-2.1-1.7s-1.6-.5-2.3-.6c-1.8-.1-3.8-.6-5.5-1.1.3-1.1.5-2.4.5-3.8s-.2-3-.8-4.5c-.4-1.2-1.1-2.4-2-3.4-1.4-1.6-3.3-2.9-5.6-3.9-2.3-.9-5-1.5-8.3-1.8-1.1-.1-2.2-.1-3.2-.1-2.8 0-5.3.4-7.4 1.1-1.6.6-3 1.4-4.1 2.3-1.7 1.4-2.8 3.3-3.5 5-.6 1.8-.8 3.5-.8 5v1.2c-1.2.1-2.5.2-3.8.2-.6 0-1.2 0-1.8-.1-.2 0-.4 0-.6 0-.8 0-1.6.1-2.4.4-.6.2-1.2.6-1.7 1.1-.8.7-1.2 1.6-1.5 2.4s-.3 1.5-.3 2.1c0 1.2.2 2.2.5 3.1.3 1 .6 1.8.9 2.6l-3.9 4.8c-.5.6-.8 1.4-.9 2.2l-1.7 21.5c-.1 1 .3 2.1.9 2.9s1.7 1.3 2.7 1.4l2.9.2-.5 6.2c-.1.9.1 1.7.6 2.4l1.6 2.6-2.2 25.8c-.1 1.1.3 2.1 1 3 .7.8 1.7 1.3 2.8 1.4 12.2.7 24.3 1.3 36.5 1.8 2.1.1 4-1.5 4.2-3.7l1.9-24.1 2.3-3.2c.4-.6.7-1.3.7-2l.5-6.2 2.9.2c1 .1 2.1-.3 2.9-.9s1.3-1.7 1.4-2.7l1.7-21.5c-.2-.5-.4-1.3-.8-2zm-8.9 19.2-2.9-.2c-2.2-.2-4.1 1.5-4.3 3.7l-.7 9.1-2.3 3.2c-.4.6-.7 1.3-.7 2l-1.7 21.4c-9.5-.4-18.9-.9-28.4-1.4l1.9-23c.1-.9-.1-1.7-.6-2.5l-1.6-2.6.7-8.9c.1-1-.3-2.1-.9-2.9s-1.7-1.3-2.7-1.4l-2.9-.2 1.3-16.3 4.8-5.8c1-1.3 1.2-3 .4-4.5s-.5-.9-.9-1.9c-.1-.1-.1-.3-.1-.4 2.4 0 4.6-.2 6.2-.5 1.7-.2 2.8-.5 2.9-.5 1.1-.2 2.1-1 2.7-2s.7-2.2.3-3.3 0-.1-.1-.3c-.1-.5-.4-1.7-.4-3 0-.7.1-1.4.3-2 .1-.5.3-.8.6-1.2.4-.5.9-1 1.9-1.4s2.6-.8 5-.8c.8 0 1.6 0 2.5.1h.1c2.4.2 4.2.6 5.5 1 1 .4 1.7.7 2.2 1.1.7.6 1.1 1.1 1.3 1.6s.4 1.2.4 1.9c0 1-.3 2.2-.6 3.1-.2.4-.3.8-.4 1-.1.1-.1.2-.1.2-.5 1-.6 2.2-.2 3.3s1.2 1.9 2.3 2.4c.1 0 1.5.6 3.6 1.2 1.5.4 3.3.9 5.2 1.2-.2.4-.5.8-.7 1.1s-.4.6-.5.8l-.2.2c-1 1.3-1.1 3.1-.3 4.5l3.8 6.5z" fill="#740806"/><path d="m515.5 557.9 53 3.1 25.5-460.7-28.5-2.3z" fill="#a84b00"/><path d="m515.5 557.9-.2 4 53.1 3.1c1.1.1 2.1-.3 2.9-1s1.3-1.7 1.3-2.8l25.4-460.7c.1-2.2-1.5-4-3.7-4.2l-28.4-2.3c-2.2-.2-4.1 1.4-4.3 3.6l-50.1 459.9c-.1 1.1.2 2.2.9 3s1.7 1.3 2.8 1.4l.3-4 4 .4 49.6-456 20.7 1.7-25.1 452.8-49-2.9-.2 4 4 .4z" fill="#740806"/><path d="m540.1 750.2c.7 0 1.3-.6 1.4-1.3l46.8-657c.1-.8-.6-1.5-1.4-1.5h-.2c-.8 0-1.4.6-1.4 1.3l-46.6 657c-.1.8.6 1.5 1.4 1.5z" fill="#fff"/><path d="m515.3 749.3 1.3-.3c.6-.1 1-.6 1-1.1l55.8-657.7c.1-.7-.4-1.3-1.1-1.4s-1.3.4-1.4 1.2l-57.1 658c0 .8.7 1.5 1.5 1.3z" fill="#fff"/><path d="m531.4 751.3 1.4-.3c.5-.1.9-.6 1-1.1l53.6-711.5c0-.7-.4-1.2-1.1-1.3s-1.3.4-1.3 1.1l-55 711.8c-.1.9.6 1.5 1.4 1.3z" fill="#fff"/><path d="m524 746.8h.2c.7 0 1.3-.5 1.4-1.2l56.4-707.6c.1-.7-.5-1.4-1.2-1.4s-1.3.5-1.4 1.2l-56.6 707.5c-.1.8.5 1.4 1.2 1.5z" fill="#fff"/><path d="m473.8 734c-4.1 50.4 17.2 93.3 47.6 95.8s58.3-36.4 62.4-86.9z" fill="#740806"/><path d="m614.1 238.1c17.4-12.3 27.9-35.2-3.5-44.5 5-8.3 5.1-16.9-3-24.2-14.2-12.6-26.8 3.3-26.8 3.3-12.1 11.3-27.4 29.5-13.8 39.3 5.4 3.9 13.4 3.3 21.2.1-9.3 10.7-16.1 23.5-5.4 31.2 2.4 1.7 5.4 2.6 8.6 2.8-13.3 9.5-27.5 23.6-16.5 34.6 17.6 17.6 79-19.5 39.2-42.6z" fill="#ff5420"/><path d="m630.9 229.8c1.7-2.5 3.2-5.2 4.2-8s1.7-5.8 1.7-8.9c0-2.7-.5-5.4-1.5-8-1.6-3.9-4.4-7.4-8.2-10.2-2.3-1.7-5.1-3.3-8.2-4.6 0-.1.1-.2.1-.3.8-2.4 1.2-4.9 1.2-7.4 0-3.2-.7-6.4-2.1-9.4s-3.6-5.7-6.4-8.2c-2.5-2.2-5.1-3.8-7.7-4.8s-5.3-1.5-7.8-1.5c-3.1 0-6 .7-8.4 1.7-3.7 1.5-6.4 3.6-8.4 5.3-1.5 1.3-2.4 2.4-2.9 2.9-4.5 4.2-9.4 9.3-13.3 14.9-2 2.8-3.8 5.8-5.2 8.9-1.3 3.1-2.2 6.4-2.2 9.9 0 2.7.6 5.5 1.9 8.1s3.4 4.8 5.9 6.6c1.9 1.4 4 2.4 6.2 3 1.7.5 3.4.7 5.2.8-1 1.8-1.8 3.7-2.4 5.7-.7 2.2-1.1 4.6-1.1 7 0 2.7.6 5.6 2 8.1 1.3 2.6 3.3 4.8 5.9 6.6-2.2 2-4.4 4.1-6.3 6.3-2.2 2.5-4.1 5.2-5.5 8.1s-2.4 6.1-2.4 9.5c0 2.3.5 4.6 1.4 6.9 1 2.2 2.4 4.3 4.2 6.1 2.3 2.3 5.2 4 8.1 5 3 1 6.1 1.4 9.2 1.4 5 0 10.2-1.1 15.2-2.8 3.8-1.3 7.4-3.1 10.9-5.1 5.1-3.1 9.8-7 13.3-11.5 1.8-2.3 3.2-4.7 4.3-7.4s1.7-5.5 1.7-8.5c0-2.1-.3-4.3-1-6.5-1-3.2-2.9-6.3-5.4-9-.9-.9-1.8-1.9-2.8-2.7 2.3-2.5 4.6-5.2 6.6-8zm-7-12.2c-.9 2.6-2.6 5.4-4.9 8.1s-5.1 5.3-8.3 7.5c-1.7 1.2-2.6 3.1-2.5 5.2s1.2 3.9 3 4.9c4.2 2.4 6.8 4.8 8.2 6.9.7 1.1 1.2 2 1.5 3 .3.9.4 1.8.4 2.8 0 1.1-.2 2.3-.7 3.6-.8 2.2-2.3 4.7-4.6 7-3.3 3.6-8.1 6.9-13.2 9.2s-10.5 3.6-14.9 3.6c-2.1 0-3.9-.3-5.4-.8s-2.6-1.2-3.5-2.1-1.4-1.7-1.7-2.4-.4-1.3-.4-2.1c0-1.1.3-2.5 1.2-4.2.6-1.3 1.5-2.7 2.7-4.1 1.7-2.2 3.9-4.4 6.3-6.6s5.1-4.3 7.8-6.2c2.1-1.5 3-4.1 2.2-6.6-.7-2.4-2.9-4.2-5.5-4.3-1.1-.1-2.2-.2-3-.5-.9-.3-1.6-.6-2.3-1.1-1.3-.9-1.9-1.8-2.3-2.5-.4-.8-.6-1.5-.6-2.6 0-.9.2-2.1.6-3.4.6-1.9 1.7-4.2 3.3-6.6 1.5-2.4 3.5-4.9 5.5-7.3 1.8-2.1 2-5.2.3-7.4-1.6-2.3-4.6-3.1-7.2-2.1-3.5 1.4-6.8 2.2-9.6 2.2-1.3 0-2.4-.2-3.4-.4-1-.3-1.8-.7-2.5-1.2-1.3-.9-1.9-1.7-2.3-2.4s-.6-1.5-.6-2.5c0-1.3.4-3.1 1.3-5.1 1.3-3.1 3.7-6.7 6.6-10.2s6.2-6.9 9.4-9.9c.2-.2.4-.4.6-.6l.1-.1c.3-.4 1.8-2 3.8-3.4 1-.7 2.2-1.3 3.3-1.8 1.2-.4 2.3-.7 3.5-.7 1 0 2.1.2 3.3.7s2.6 1.3 4.2 2.7c1.8 1.6 2.9 3 3.5 4.4.7 1.4.9 2.7 1 4.1 0 1.1-.2 2.4-.6 3.7s-1.1 2.8-2 4.3c-1 1.6-1.1 3.5-.5 5.3s2.1 3.1 3.9 3.6c3.3 1 6 2.1 8.1 3.3 3.2 1.8 5.1 3.6 6.2 5.3.6.8.9 1.7 1.2 2.5.2.8.4 1.7.4 2.6 0 1.5-.3 3-.9 4.7z" fill="#740806"/><path d="m527.9 617.6c10.4-11.3 8.4-26 8.4-26 16.9-17.5 11.6-44.9-.1-38.6-2.7 1.5-6.9 9.4-13.9 14.3s-16.7 6.8-16.7 6.8h-21.4s1.6-25.9-5.7-36.4c-4.2-6.1-13.8-2.6-13.3 4.8.4 5.6-1.6 13.2-13.7 16.4-7.8 2.1-36.2 18.4-40.6 18.9-46 4.6-80.2-29.4-99-74.1-48.9-116.5-118.3-27.6-124.2-4.2-31.4 126.4 90.2 193.1 232.6 183.8 22.8-1.5 56.7-13.5 76.2-51.9 3.1-6.2 21.1-2.5 31.4-13.8z" fill="#ff5420"/><g fill="#740806"><path d=""/><path d="m553.1 565.7c0-2.3-.2-4.6-.7-6.7-.3-1.6-.8-3.1-1.4-4.5-.9-2.1-2.2-4.1-4.2-5.7-1-.8-2.1-1.5-3.3-2s-2.6-.7-4-.7c-2.2 0-4.3.6-6.2 1.7-1 .6-1.7 1.2-2.3 1.7-1.1 1-1.9 2.1-2.8 3.2-1.3 1.7-2.7 3.5-4.3 5.2-1.5 1.7-3.2 3.3-5 4.6-2.7 1.9-6.5 3.5-9.4 4.5-1.5.5-2.8.8-3.7 1.1-.3.1-.6.1-.8.2h-14.7c0-4.3-.2-10.3-1.1-16.4-.5-3-1.1-6.1-2-9.1-.9-2.9-2.1-5.8-3.9-8.3-1.3-1.9-3-3.3-4.9-4.3s-3.9-1.4-5.9-1.4c-3.4 0-6.7 1.3-9.2 3.6-1.3 1.2-2.3 2.6-3.1 4.3s-1.2 3.6-1.2 5.5v.9.8c0 .9-.1 1.8-.3 2.6-.4 1.2-.9 2.3-2.2 3.5-.6.6-1.4 1.2-2.5 1.7-1.1.6-2.5 1.1-4.2 1.6-1.5.4-2.9 1-4.6 1.7-2.9 1.2-6.4 2.9-10.1 4.7-5.5 2.8-11.6 5.9-16.6 8.4-2.5 1.2-4.7 2.3-6.3 3-.8.4-1.5.6-2 .8-.2.1-.3.1-.3.1-2.5.2-5 .4-7.4.4-9.2 0-17.7-1.7-25.7-4.7-12-4.6-22.9-12.4-32.4-22.7-9.5-10.2-17.7-22.9-24.2-36.9-1.4-3-5-4.3-8-2.9s-4.3 5-2.9 8c9.3 20 21.8 37.6 37.5 50.5 7.8 6.4 16.4 11.6 25.7 15.2s19.4 5.5 30 5.5c2.9 0 5.8-.1 8.8-.4.5-.1.9-.1 1.3-.2.7-.2 1.3-.4 2-.6 1.2-.4 2.5-1 4-1.7 2.6-1.2 5.7-2.7 9-4.4 5-2.5 10.4-5.3 15.1-7.6 2.4-1.2 4.5-2.2 6.3-3 .9-.4 1.7-.7 2.4-1s1.2-.4 1.5-.5c3.3-.9 6.1-2.1 8.5-3.6 1.8-1.1 3.4-2.4 4.6-3.9 1.9-2.1 3.2-4.5 4-6.9.8-2.3 1-4.6 1-6.7 0-.6 0-1.1-.1-1.6v-.1c0-.3 0-.4.1-.6s.2-.4.5-.5c.3-.2.6-.3.9-.3.2 0 .3 0 .5.1.1.1.3.1.5.5.8 1.1 1.6 2.9 2.3 5 1 3.2 1.7 7.2 2 11.2.4 3.9.5 7.8.5 10.7 0 1.7 0 3.2-.1 4.2v1.1.3.1c-.1 1.6.5 3.3 1.6 4.5s2.7 1.9 4.4 1.9h21.4c.4 0 .8 0 1.2-.1.2 0 2.8-.6 6.5-1.8 3.6-1.2 8.3-3.1 12.6-6.1 4.2-3 7.3-6.6 9.7-9.5 1.2-1.4 2.2-2.7 2.9-3.6.4-.4.7-.7.8-.9h.1c.1.1.2.2.3.4.3.5.7 1.5 1 2.7s.5 2.8.5 4.4c0 3.2-.6 7-2.1 10.8s-3.7 7.6-7 10.9c-1.3 1.3-1.9 3.1-1.6 4.9s.1.9.1 2.2c0 2-.2 5.2-1.2 8.6s-2.7 7.1-5.8 10.4c-1.9 2.1-4.1 3.5-6.7 4.6-1.9.8-4.1 1.4-6.3 1.9-1.6.4-3.3.7-5 1-1.2.2-2.5.5-3.7.8-1.8.4-3.7 1-5.5 1.9-.9.5-1.9 1.1-2.8 1.9s-1.7 1.8-2.4 3c-4.6 9.1-10.1 16.6-15.9 22.7-8.8 9.2-18.6 15.4-28.3 19.5-9.6 4.1-19.1 6-27.1 6.5-9.3.6-18.5.9-27.5.9-28.4 0-55.5-3-80.2-8.8-18.5-4.4-35.6-10.3-50.8-17.9-22.8-11.3-41.3-26-54.1-44-6.4-9-11.4-18.8-14.7-29.5-3.4-10.7-5.2-22.2-5.2-34.7 0-11.5 1.5-23.7 4.8-36.8 0-.2.2-.8.5-1.5.5-1.4 1.3-3.4 2.5-5.7 2-4.2 5.1-9.5 9-15.1 5.9-8.4 14-17.5 24.1-24.3 5-3.4 10.5-6.3 16.5-8.3s12.5-3.2 19.5-3.2c5 0 10.2.6 15.8 1.9 3.2.7 6.5-1.3 7.2-4.5s-1.3-6.5-4.5-7.2c-6.4-1.5-12.6-2.2-18.5-2.2-13.6 0-25.7 3.7-36 9.3-7.7 4.2-14.4 9.5-20.1 15.1-8.6 8.4-15.1 17.6-19.7 25.4-2.3 3.9-4.1 7.4-5.4 10.3-.7 1.5-1.2 2.8-1.6 3.9-.4 1.2-.8 2.1-1 3.1-3.5 13.9-5.1 27.2-5.1 39.7 0 24.3 6.3 45.9 17.7 64.4 8.5 13.9 19.8 26 33.3 36.3 20.2 15.5 45.3 27 73.6 34.7 28.2 7.7 59.6 11.5 92.5 11.5 9.3 0 18.8-.3 28.3-.9 12.3-.8 27.3-4.4 42-12.9 7.3-4.3 14.6-9.8 21.3-16.7 6.6-6.9 12.7-15.2 17.8-25.2.2-.1.4-.2.8-.4 1.1-.4 2.9-.8 5.1-1.2 3.3-.7 7.5-1.4 11.9-3 2.2-.8 4.4-1.8 6.6-3.2 2.2-1.3 4.3-3 6.3-5.1 4.5-4.9 7-10.3 8.4-15.1s1.7-9.1 1.7-11.9c0-.3 0-.5 0-.8 3.5-4.1 6-8.5 7.7-12.9 1.9-5.4 2.8-10.5 2.8-15.3z"/></g><path d="m499.4 610.3c.3 0 8.4-.7 18.4-4.2 5-1.8 10.4-4.3 15.6-8 5.1-3.6 10-8.4 13.6-14.6 1.4-2.4.6-5.5-1.8-6.8-2.4-1.4-5.5-.6-6.8 1.8-2.7 4.7-6.5 8.4-10.7 11.4-6.3 4.5-13.6 7.1-19.4 8.6-2.9.7-5.3 1.2-7 1.5-.9.1-1.5.2-2 .3-.2 0-.4 0-.5.1h-.1l.1 1.8-.1-1.8.1 1.8-.1-1.8c-2.8.2-4.8 2.6-4.6 5.4.1 2.7 2.5 4.8 5.3 4.5z" fill="#740806"/></g></g><g><path d="m33.5 356v.5 1.1.1.1c.3 4.2 1.8 8 3.8 11.3 1.6 2.4 3.4 4.4 5.4 6 3 2.4 6.3 4.1 9.7 5.3 3.4 1.1 7 1.7 10.7 1.7.9 0 1.7 0 2.5-.1h.1c3.4-.2 6.7-.9 9.8-2.1 2.3-.9 4.5-2 6.6-3.4s4.1-3.1 5.8-5.1c1.4-1.6 2.7-3.5 3.7-5.6 2.9.7 5.8 1.1 8.8 1.1.9 0 1.7 0 2.5-.1h.1c3.4-.2 6.7-1 9.8-2.1 2.3-.9 4.5-2 6.6-3.4s4.1-3.1 5.8-5.1c1.8-2 3.3-4.4 4.5-7.2 1.1-2.7 1.8-5.7 1.8-8.8 0-.1 0-.1 0-.2s0-.1 0-.2 0 0 0 0c0-.5 0-1.1-.1-1.6 0-.3 0-.5-.1-.8 0-.2 0-.4 0-.6v-.1l-.6-9-1.5-20.9-.6-9c-.2-2.6-.9-5.1-2-7.3-1-2-2.2-3.7-3.6-5.1s-.1-.1-.1-.1-.1-.1-.1-.1c-1.8-1.9-4-3.5-6.4-4.6-2.3-1-4.8-1.6-7.4-1.7-.5 0-.7 0-.7 0-2.3 0-4.6.4-6.9 1.3-.1 0-.3.1-.4.1s-.2.1-.3.1l-7.7 3.2-17 7.4-11.4 4.7c-3.6 1.3-6.6 3.6-8.9 6.5-2.6 3.4-4.1 7.6-4.1 12.2v1.3.1.1l.6 8.9.4 6.3c-.1 0-.3.1-.4.1-2.3.9-4.5 2-6.6 3.4s-4.1 3.1-5.8 5.1c-1.8 2-3.3 4.4-4.5 7.2-1.1 2.7-1.8 5.8-1.8 9.1 0-.1 0-.1 0 0z" fill="#fff"/><path d="m124.3 338.9c0-.3-.1-.6-.1-.8s0-.4 0-.6l-.6-9-1.5-20.9-.6-9c-.1-1.6-.6-3.2-1.2-4.6-.6-1.3-1.4-2.4-2.4-3.3-2.4-2.6-5.7-4.1-9.2-4.1-1.6 0-3.3.3-4.8 1l-7.7 3.2-17.3 7.2-11.4 4.7c-2.3.8-4.3 2.3-5.8 4.2-1.6 2.1-2.6 4.8-2.6 7.6v.9-.1l.6 9 .9 12.5c-2 .3-3.9.8-5.7 1.4-3.6 1.3-6.9 3.4-9.5 6.4-1.3 1.5-2.4 3.2-3.2 5.1s-1.3 4.1-1.3 6.3v1.2c.2 2.9 1.2 5.6 2.7 7.8 1.1 1.7 2.4 3.1 3.9 4.3 2.2 1.8 4.7 3.1 7.3 3.9 2.6.9 5.5 1.3 8.4 1.3.7 0 1.3 0 2-.1 2.7-.2 5.3-.8 7.7-1.6 3.6-1.3 6.9-3.4 9.5-6.4 1.3-1.5 2.4-3.2 3.2-5.1.7-1.8 1.2-3.7 1.2-5.7 1.7 1.1 3.5 1.9 5.4 2.5 2.6.9 5.5 1.3 8.4 1.3.7 0 1.3 0 2-.1 2.7-.2 5.3-.8 7.7-1.6 3.6-1.3 6.9-3.4 9.5-6.4 1.3-1.5 2.4-3.2 3.2-5.1s1.3-4.1 1.3-6.3c.1-.3.1-.7 0-1zm-39.2-11.5-.3-4.9 13-5.4.3 4.6c-2 .3-3.9.8-5.7 1.4-2.7 1.1-5.2 2.5-7.3 4.3z" fill="#740806"/><path d="m111.4 296.8c-.9-1.2-2.6-1.7-4.1-1.1l-7.7 3.2-17.3 7.2-11.6 4.9c-1.6.4-2.7 1.9-2.6 3.6l.6 9 1.5 20.9.1 1.8c-2.1-.7-4.5-1-7.1-.9-7.7.5-13.6 5.5-13.3 11 .4 5.5 7 9.5 14.7 9s13.6-5.5 13.3-11c0-.3-.1-.6-.1-.9 0-.2 0-.4 0-.6l-.6-9-1.5-20.9-.5-6.4 5.5-2.3 17.3-7.2 7.7-3.2.3 4.6 1.5 20.9.1 1.8c-2.1-.7-4.5-1-7.1-.9-7.5.7-13.5 5.7-13.1 11.2s7 9.5 14.7 9 13.6-5.5 13.3-11c0-.3-.1-.6-.1-.9 0-.2 0-.4 0-.6l-.6-9-1.5-20.9-.6-9c-.2-.9-.6-1.7-1.2-2.3z" fill="#fec700"/></g><g><g fill="#fff"><path d=""/><path d=""/><path d=""/><path d=""/><path d=""/><path d=""/><path d="m737.7 337-4.4 6.1 4.4-6.1-8.5-6.2c-1.3-1.1-2.7-2.1-4.3-2.9-2.2-1-4.5-1.6-7-1.8-.3 0-.5-.1-.8-.1h-.2c-.1 0-.2 0-.3 0h-.1.1-.1s0 0-.1 0c-2.7 0-5.3.5-7.6 1.5-3.5 1.5-6.5 3.9-8.6 7-2.2 3.1-3.4 6.9-3.4 11l-.1 8.3v4.8c-2.3.7-4.5 1.7-6.7 2.9-3.2 1.9-6.3 4.5-8.7 8-1.2 1.8-2.2 3.8-3 6-.7 2.2-1.1 4.6-1.2 7v.1.1c0 2.2.3 4.3.9 6.4 1 3.5 2.8 6.6 4.8 9 3.1 3.6 6.9 6.1 10.8 7.8 3.9 1.6 8.2 2.5 12.6 2.6h.3c3.3 0 6.6-.5 9.7-1.4 2.3-.7 4.6-1.7 6.7-2.9 3.2-1.9 6.3-4.5 8.7-8 1.2-1.8 2.2-3.8 3-6 .7-2.2 1.2-4.6 1.2-7.1v-.1c0-.2 0-.4 0-.5s0-.3 0-.4v-.1-4.1c.6-.2 1.1-.4 1.7-.6 5.3-2.3 9.1-7.1 9.9-12.9l.6-3.9c0-.2.1-.5.1-.8s0-.6 0-.8c0-.4 0-.8 0-1.1 0-8.3-3.9-16-10.4-20.8z"/></g><g><path d="m733.3 343.1-8.6-6.3c-.9-.8-1.9-1.5-3-2-1.5-.7-3.1-1.1-4.8-1.2s-.1 0-.3 0h-.1c-1.6 0-3.3.3-4.7.9-2.2.9-4 2.4-5.4 4.4-1.3 1.9-2.1 4.3-2.1 6.8l-.1 8.3-.1 10.9c-1.8.2-3.5.5-5.2 1-1.8.5-3.5 1.3-5.1 2.2-2.4 1.4-4.6 3.3-6.3 5.8-.8 1.2-1.6 2.6-2.1 4.1s-.8 3.1-.8 4.8v.2c0 1.5.2 2.9.6 4.3.7 2.4 1.9 4.5 3.4 6.2 2.2 2.6 5 4.5 8 5.7 3 1.3 6.3 1.9 9.8 2h.3c2.6 0 5.1-.4 7.5-1.1 1.8-.5 3.5-1.3 5.1-2.2 2.4-1.4 4.6-3.3 6.3-5.8.8-1.2 1.6-2.6 2.1-4.1s.8-3.1.8-4.8v-.2c0-.2 0-.4 0-.6s0-.5 0-.7l.1-8.3v-3c2 .6 4.2.6 6.2-.3 2.9-1.2 5-3.9 5.4-7l.6-3.9c.1-.4.1-.5.1-.9 0-.3 0-.5 0-.8-.3-5.6-3-11-7.6-14.4z" fill="#740806"/><path d="m731.6 358c.1-3-1.2-5.8-3.6-7.6l-9.2-6.7c-.6-.7-1.4-1.1-2.4-1.1-1.8 0-3.2 1.4-3.2 3.2l-.1 8.3-.2 19.3v1.7c-1.9-.8-4.1-1.3-6.4-1.3-7.1-.1-12.9 4-12.9 9.1s5.7 9.2 12.8 9.3 12.9-4 12.9-9.1c0-.3 0-.5 0-.8 0-.2.1-.4.1-.6l.1-8.3.2-19.3v-.6l11.5 8.4z" fill="#fec700"/></g></g><g><g fill="#fff"><path d=""/><path d=""/><path d=""/><path d=""/><path d=""/><path d=""/><path d="m693.5 83.3-4.4 6.1 4.4-6.1-8.5-6.2c-1.3-1.1-2.7-2.1-4.3-2.9-2.2-1-4.5-1.6-7-1.8-.3 0-.5-.1-.8-.1h-.2c-.1 0-.2 0-.3 0h-.1.1-.1s0 0-.1 0c-2.7 0-5.3.5-7.6 1.5-3.5 1.5-6.5 3.9-8.6 7-2.2 3.1-3.4 6.9-3.4 11l-.1 8.3v4.8c-2.3.7-4.5 1.7-6.7 2.9-3.2 1.9-6.3 4.5-8.7 8-1.2 1.8-2.2 3.8-3 6-.7 2.2-1.1 4.6-1.2 7v.1.1c0 2.2.3 4.3.9 6.4 1 3.5 2.8 6.6 4.8 9 3.1 3.6 6.9 6.1 10.8 7.8 3.9 1.6 8.2 2.5 12.6 2.6h.3c3.3 0 6.6-.5 9.7-1.4 2.3-.7 4.6-1.7 6.7-2.9 3.2-1.9 6.3-4.5 8.7-8 1.2-1.8 2.2-3.8 3-6 .7-2.2 1.2-4.6 1.2-7.1v-.1-.1c0-.2 0-.4 0-.5s0-.3 0-.4v-.1-4.1c.6-.2 1.1-.4 1.7-.6 5.3-2.3 9.1-7.1 9.9-12.9l.6-3.9c0-.2.1-.5.1-.8s0-.6 0-.8c0-.4 0-.8 0-1.1 0-8.3-3.9-15.9-10.4-20.7z"/></g><g><path d="m689.1 89.3-8.6-6.3c-.9-.8-1.9-1.5-3-2-1.5-.7-3.1-1.1-4.8-1.2s-.1 0-.3 0h-.1c-1.6 0-3.3.3-4.7.9-2.2.9-4 2.4-5.4 4.4-1.3 1.9-2.1 4.3-2.1 6.8l-.1 8.3-.1 10.9c-1.8.2-3.5.5-5.2 1-1.8.5-3.5 1.3-5.1 2.2-2.4 1.4-4.6 3.3-6.3 5.8-.8 1.2-1.6 2.6-2.1 4.1s-.8 3.1-.8 4.8v.2c0 1.5.2 2.9.6 4.3.7 2.4 1.9 4.5 3.4 6.2 2.2 2.6 5 4.5 8 5.7 3 1.3 6.3 1.9 9.8 2h.3c2.6 0 5.1-.4 7.5-1.1 1.8-.5 3.5-1.3 5.1-2.2 2.4-1.4 4.6-3.3 6.3-5.8.8-1.2 1.6-2.6 2.1-4.1s.8-3.1.8-4.8v-.1c0-.2 0-.4 0-.6s0-.5 0-.7l.1-8.3v-3c2 .6 4.2.6 6.2-.3 2.9-1.2 5-3.9 5.4-7l.6-3.9c.1-.4.1-.5.1-.9 0-.3 0-.5 0-.8-.3-5.7-3-11.1-7.6-14.5z" fill="#740806"/><path d="m687.4 104.2c.1-3-1.2-5.8-3.6-7.6l-9.2-6.7c-.6-.7-1.4-1.1-2.4-1.1-1.8 0-3.2 1.4-3.2 3.2l-.1 8.3-.2 19.3v1.7c-1.9-.8-4.1-1.3-6.4-1.3-7.1-.1-12.9 4-12.9 9.1s5.7 9.2 12.8 9.3 12.9-4 12.9-9.1c0-.3 0-.5 0-.8 0-.2.1-.4.1-.6l.1-8.3.2-19.3v-.6l11.5 8.4z" fill="#fec700"/></g></g></g></g></svg>